<svg width="40" height="40" viewBox="0 0 40 40" fill="none" xmlns="http://www.w3.org/2000/svg">
<rect width="40" height="40" rx="20" fill="#141414"/>
<path d="M27.0565 11.6666H12.9398C12.7812 11.6644 12.6236 11.6935 12.4761 11.7522C12.3287 11.8109 12.1943 11.8981 12.0805 12.0087C11.9668 12.1194 11.8759 12.2514 11.8132 12.3971C11.7504 12.5429 11.717 12.6996 11.7148 12.8583V27.1416C11.717 27.3003 11.7504 27.457 11.8132 27.6028C11.8759 27.7486 11.9668 27.8805 12.0805 27.9912C12.1943 28.1019 12.3287 28.189 12.4761 28.2477C12.6236 28.3064 12.7812 28.3355 12.9398 28.3333H27.0565C27.2152 28.3355 27.3728 28.3064 27.5202 28.2477C27.6677 28.189 27.8021 28.1019 27.9158 27.9912C28.0296 27.8805 28.1204 27.7486 28.1832 27.6028C28.2459 27.457 28.2793 27.3003 28.2815 27.1416V12.8583C28.2793 12.6996 28.2459 12.5429 28.1832 12.3971C28.1204 12.2514 28.0296 12.1194 27.9158 12.0087C27.8021 11.8981 27.6677 11.8109 27.5202 11.7522C27.3728 11.6935 27.2152 11.6644 27.0565 11.6666ZM16.7398 25.6166H14.2398V18.1166H16.7398V25.6166ZM15.4898 17.0666C15.1451 17.0666 14.8144 16.9297 14.5706 16.6859C14.3268 16.4421 14.1898 16.1114 14.1898 15.7666C14.1898 15.4218 14.3268 15.0912 14.5706 14.8474C14.8144 14.6036 15.1451 14.4666 15.4898 14.4666C15.6729 14.4459 15.8583 14.464 16.0339 14.5199C16.2095 14.5757 16.3713 14.668 16.5087 14.7908C16.6462 14.9135 16.7561 15.0639 16.8314 15.232C16.9067 15.4002 16.9456 15.5824 16.9456 15.7666C16.9456 15.9509 16.9067 16.133 16.8314 16.3012C16.7561 16.4694 16.6462 16.6198 16.5087 16.7425C16.3713 16.8652 16.2095 16.9575 16.0339 17.0134C15.8583 17.0692 15.6729 17.0874 15.4898 17.0666ZM25.7565 25.6166H23.2565V21.5916C23.2565 20.5833 22.8982 19.925 21.9898 19.925C21.7087 19.927 21.435 20.0152 21.2055 20.1776C20.9761 20.34 20.8019 20.5688 20.7065 20.8333C20.6413 21.0292 20.613 21.2354 20.6232 21.4416V25.6083H18.1232C18.1232 25.6083 18.1232 18.7916 18.1232 18.1083H20.6232V19.1666C20.8503 18.7725 21.1806 18.4479 21.5785 18.2276C21.9765 18.0074 22.427 17.8998 22.8815 17.9166C24.5482 17.9166 25.7565 18.9916 25.7565 21.3V25.6166Z" fill="white"/>
</svg>
