<svg width="40" height="40" viewBox="0 0 40 40" fill="none" xmlns="http://www.w3.org/2000/svg">
<rect width="40" height="40" rx="20" fill="#141414"/>
<path d="M28.3346 14.8333C27.7083 15.105 27.0458 15.2847 26.368 15.3666C27.0831 14.9394 27.619 14.2672 27.8763 13.4749C27.2043 13.875 26.4686 14.1568 25.7013 14.3083C25.1884 13.7521 24.5054 13.3818 23.7595 13.2556C23.0135 13.1294 22.2468 13.2544 21.5795 13.6109C20.9122 13.9674 20.3821 14.5354 20.0723 15.2256C19.7626 15.9159 19.6907 16.6894 19.868 17.4249C18.5092 17.3562 17.18 17.0024 15.9668 16.3865C14.7537 15.7706 13.6837 14.9063 12.8263 13.8499C12.5256 14.3751 12.3676 14.9698 12.368 15.5749C12.3669 16.1369 12.5048 16.6904 12.7694 17.1862C13.034 17.682 13.4172 18.1047 13.8846 18.4166C13.3413 18.4018 12.8095 18.256 12.3346 17.9916V18.0333C12.3387 18.8207 12.6146 19.5825 13.1157 20.1899C13.6168 20.7973 14.3123 21.213 15.0846 21.3666C14.7873 21.4571 14.4787 21.5048 14.168 21.5083C13.9529 21.5058 13.7383 21.4862 13.5263 21.4499C13.7462 22.1273 14.1718 22.7192 14.7439 23.1434C15.3159 23.5676 16.0059 23.8029 16.718 23.8166C15.5156 24.7627 14.0312 25.279 12.5013 25.2833C12.2227 25.2842 11.9444 25.2675 11.668 25.2333C13.23 26.2418 15.0503 26.7772 16.9096 26.7749C18.1927 26.7883 19.4656 26.5458 20.6539 26.0617C21.8422 25.5775 22.9222 24.8615 23.8306 23.9553C24.7391 23.0492 25.4579 21.9711 25.9451 20.784C26.4323 19.5969 26.678 18.3247 26.668 17.0416C26.668 16.8999 26.668 16.7499 26.668 16.5999C27.3219 16.1123 27.8859 15.5145 28.3346 14.8333Z" fill="white"/>
</svg>
