<svg width="40" height="40" viewBox="0 0 40 40" fill="none" xmlns="http://www.w3.org/2000/svg">
<rect width="40" height="40" rx="20" fill="#141414"/>
<path d="M29.1649 18.0917C29.2061 16.8989 28.9453 15.715 28.4066 14.65C28.0411 14.213 27.5338 13.9181 26.9732 13.8167C24.6545 13.6063 22.3262 13.52 19.9982 13.5583C17.6788 13.5183 15.3588 13.6017 13.0482 13.8083C12.5914 13.8914 12.1687 14.1057 11.8316 14.425C11.0816 15.1167 10.9982 16.3 10.9149 17.3C10.794 19.098 10.794 20.902 10.9149 22.7C10.939 23.2628 11.0228 23.8215 11.1649 24.3667C11.2654 24.7875 11.4687 25.1769 11.7566 25.5C12.096 25.8362 12.5286 26.0627 12.9982 26.15C14.7948 26.3718 16.6051 26.4637 18.4149 26.425C21.3316 26.4667 23.8899 26.425 26.9149 26.1917C27.3961 26.1097 27.8409 25.8829 28.1899 25.5417C28.4232 25.3082 28.5975 25.0226 28.6982 24.7083C28.9963 23.7938 29.1426 22.8367 29.1316 21.875C29.1649 21.4083 29.1649 18.5917 29.1649 18.0917ZM18.1149 22.375V17.2167L23.0482 19.8083C21.6649 20.575 19.8399 21.4417 18.1149 22.375Z" fill="white"/>
</svg>
