<svg width="25" height="25" viewBox="0 0 25 25" fill="none" xmlns="http://www.w3.org/2000/svg">
<path d="M24.2843 0.722873C23.6593 0.0841233 22.7343 -0.152127 21.8718 0.0978732L1.75928 5.90912C0.849275 6.16162 0.204275 6.88287 0.0305252 7.79787C-0.146975 8.73037 0.473025 9.91537 1.28303 10.4104L7.57178 14.2504C8.21678 14.6454 9.04927 14.5466 9.58302 14.0116L16.7843 6.81037C17.1468 6.43412 17.7468 6.43412 18.1093 6.81037C18.4718 7.17162 18.4718 7.76037 18.1093 8.13537L10.8955 15.3366C10.3605 15.8716 10.2605 16.7016 10.6543 17.3479L14.4968 23.6604C14.9468 24.4091 15.7218 24.8354 16.5718 24.8354C16.6718 24.8354 16.7843 24.8354 16.8843 24.8216C17.8593 24.6979 18.6343 24.0341 18.9218 23.0966L24.8843 3.13537C25.1468 2.28537 24.9093 1.36037 24.2843 0.722873Z" fill="white"/>
</svg>
