<svg width="82" height="82" viewBox="0 0 82 82" fill="none" xmlns="http://www.w3.org/2000/svg">
<rect x="0.5" y="0.5" width="81" height="81" rx="40.5" stroke="url(#paint0_linear_104_11853)"/>
<rect x="0.5" y="0.5" width="81" height="81" rx="40.5" stroke="url(#paint1_linear_104_11853)"/>
<rect x="10.5" y="10.5" width="61" height="61" rx="30.5" stroke="url(#paint2_linear_104_11853)"/>
<rect x="10.5" y="10.5" width="61" height="61" rx="30.5" stroke="url(#paint3_linear_104_11853)"/>
<path d="M41 25.0625C34.5452 25.0625 29.3125 30.2952 29.3125 36.75C29.3125 41.0719 31.6589 44.8446 35.1423 46.8656C36.1134 47.4291 36.7215 48.2936 36.749 49.1636C36.7642 49.6435 37.0993 50.0536 37.5666 50.164C38.0644 50.2817 38.5716 50.3743 39.0869 50.4405C39.5454 50.4994 39.9378 50.1322 39.9378 49.67V43.0668C39.4854 43.0168 39.0422 42.9352 38.6104 42.824C38.0421 42.6778 37.7 42.0985 37.8463 41.5302C37.9926 40.9619 38.5718 40.6198 39.1401 40.7661C39.7334 40.9188 40.3565 41.0003 41.0003 41.0003C41.644 41.0003 42.2671 40.9188 42.8604 40.7661C43.4287 40.6198 44.008 40.9619 44.1542 41.5302C44.3005 42.0985 43.9584 42.6778 43.3901 42.824C42.9583 42.9352 42.5151 43.0168 42.0628 43.0668V49.6699C42.0628 50.1321 42.4552 50.4994 42.9136 50.4404C43.4287 50.3742 43.9358 50.2817 44.4334 50.164C44.9007 50.0536 45.2358 49.6435 45.251 49.1636C45.2785 48.2936 45.8866 47.4291 46.8577 46.8656C50.3411 44.8446 52.6875 41.0719 52.6875 36.75C52.6875 30.2952 47.4548 25.0625 41 25.0625Z" fill="#A685FA"/>
<path fill-rule="evenodd" clip-rule="evenodd" d="M36.7686 52.1912C36.878 51.6147 37.434 51.2359 38.0105 51.3453C38.9781 51.5288 39.9773 51.625 41 51.625C42.0227 51.625 43.0219 51.5288 43.9895 51.3453C44.566 51.2359 45.122 51.6147 45.2314 52.1912C45.3407 52.7677 44.962 53.3237 44.3855 53.4331C43.2881 53.6413 42.1563 53.75 41 53.75C39.8438 53.75 38.7119 53.6413 37.6145 53.4331C37.038 53.3237 36.6593 52.7677 36.7686 52.1912Z" fill="#A685FA"/>
<path fill-rule="evenodd" clip-rule="evenodd" d="M37.8183 55.654C37.8793 55.0703 38.4019 54.6467 38.9855 54.7078C39.6472 54.777 40.3193 54.8125 41 54.8125C41.6807 54.8125 42.3528 54.777 43.0145 54.7078C43.5981 54.6467 44.1207 55.0703 44.1817 55.654C44.2428 56.2376 43.8192 56.7602 43.2355 56.8212C42.5005 56.8981 41.7547 56.9375 41 56.9375C40.2453 56.9375 39.4995 56.8981 38.7645 56.8212C38.1808 56.7602 37.7572 56.2376 37.8183 55.654Z" fill="#A685FA"/>
<defs>
<linearGradient id="paint0_linear_104_11853" x1="6.75" y1="86.5" x2="85.75" y2="-5.5" gradientUnits="userSpaceOnUse">
<stop stop-color="#A685FA"/>
<stop offset="0.323723" stop-color="#A685FA" stop-opacity="0"/>
</linearGradient>
<linearGradient id="paint1_linear_104_11853" x1="81.75" y1="-10.5" x2="6.75" y2="82" gradientUnits="userSpaceOnUse">
<stop stop-color="#A685FA"/>
<stop offset="0.576615" stop-color="#A685FA" stop-opacity="0"/>
</linearGradient>
<linearGradient id="paint2_linear_104_11853" x1="3.25" y1="13.5" x2="71.75" y2="72" gradientUnits="userSpaceOnUse">
<stop stop-color="#A685FA"/>
<stop offset="0.323723" stop-color="#A685FA" stop-opacity="0"/>
</linearGradient>
<linearGradient id="paint3_linear_104_11853" x1="84.25" y1="86" x2="12.25" y2="35" gradientUnits="userSpaceOnUse">
<stop stop-color="#A685FA"/>
<stop offset="0.576615" stop-color="#A685FA" stop-opacity="0"/>
</linearGradient>
</defs>
</svg>
