<svg width="60" height="60" viewBox="0 0 60 60" fill="none" xmlns="http://www.w3.org/2000/svg">
<rect x="0.5" y="0.5" width="59" height="59" rx="29.5" stroke="url(#paint0_linear_170_3153)"/>
<rect x="0.5" y="0.5" width="59" height="59" rx="29.5" stroke="url(#paint1_linear_170_3153)"/>
<rect x="8.5" y="8.5" width="43" height="43" rx="21.5" stroke="url(#paint2_linear_170_3153)"/>
<rect x="8.5" y="8.5" width="43" height="43" rx="21.5" stroke="url(#paint3_linear_170_3153)"/>
<path fill-rule="evenodd" clip-rule="evenodd" d="M20.25 31.5C20.25 26.9437 23.9437 23.25 28.5 23.25C28.9142 23.25 29.25 23.5858 29.25 24V30.75H36C36.4142 30.75 36.75 31.0858 36.75 31.5C36.75 36.0563 33.0563 39.75 28.5 39.75C23.9437 39.75 20.25 36.0563 20.25 31.5Z" fill="#A685FA"/>
<path fill-rule="evenodd" clip-rule="evenodd" d="M30.75 21C30.75 20.5858 31.0858 20.25 31.5 20.25C36.0563 20.25 39.75 23.9437 39.75 28.5C39.75 28.9142 39.4142 29.25 39 29.25H31.5C31.0858 29.25 30.75 28.9142 30.75 28.5V21Z" fill="#A685FA"/>
<defs>
<linearGradient id="paint0_linear_170_3153" x1="4.93903" y1="63.2927" x2="62.7439" y2="-4.02439" gradientUnits="userSpaceOnUse">
<stop stop-color="#A685FA"/>
<stop offset="0.323723" stop-color="#A685FA" stop-opacity="0"/>
</linearGradient>
<linearGradient id="paint1_linear_170_3153" x1="59.8171" y1="-7.68292" x2="4.93902" y2="60" gradientUnits="userSpaceOnUse">
<stop stop-color="#A685FA"/>
<stop offset="0.576615" stop-color="#A685FA" stop-opacity="0"/>
</linearGradient>
<linearGradient id="paint2_linear_170_3153" x1="3.20968" y1="10.4839" x2="51.8226" y2="52" gradientUnits="userSpaceOnUse">
<stop stop-color="#A685FA"/>
<stop offset="0.323723" stop-color="#A685FA" stop-opacity="0"/>
</linearGradient>
<linearGradient id="paint3_linear_170_3153" x1="60.6935" y1="61.9355" x2="9.59677" y2="25.7419" gradientUnits="userSpaceOnUse">
<stop stop-color="#A685FA"/>
<stop offset="0.576615" stop-color="#A685FA" stop-opacity="0"/>
</linearGradient>
</defs>
</svg>
