<svg width="114" height="34" viewBox="0 0 114 34" fill="none" xmlns="http://www.w3.org/2000/svg">
<path d="M17 34C7.61222 34 0 26.3878 0 17H17V34Z" fill="#703BF7"/>
<path d="M0 0C9.38778 0 17 7.61222 17 17H0V0Z" fill="#703BF7"/>
<path d="M17 34C26.3878 34 34 26.3878 34 17H17V34Z" fill="#703BF7"/>
<path d="M34 17C34 7.61222 26.3878 0 17 0V17H34Z" fill="#703BF7"/>
<path d="M111.084 24.6927V19.0212C111.084 18.3661 110.872 17.8269 110.449 17.4037C110.04 16.9806 109.507 16.769 108.852 16.769C108.415 16.769 108.026 16.8646 107.685 17.0557C107.344 17.2468 107.078 17.5129 106.886 17.8542C106.695 18.1954 106.6 18.5844 106.6 19.0212L105.719 18.5298C105.719 17.7791 105.883 17.1171 106.211 16.5438C106.538 15.9569 106.989 15.4996 107.562 15.172C108.149 14.8308 108.804 14.6602 109.528 14.6602C110.265 14.6602 110.92 14.8513 111.493 15.2334C112.067 15.602 112.517 16.0865 112.845 16.6871C113.172 17.2741 113.336 17.8883 113.336 18.5298V24.6927H111.084ZM104.348 24.6927V14.8649H106.6V24.6927H104.348Z" fill="white"/>
<path d="M99.568 24.6928V14.865H101.82V24.6928H99.568ZM100.694 13.0632C100.312 13.0632 99.9912 12.9336 99.7318 12.6742C99.4861 12.4149 99.3633 12.0941 99.3633 11.7119C99.3633 11.3297 99.4861 11.009 99.7318 10.7496C99.9912 10.4903 100.312 10.3606 100.694 10.3606C101.09 10.3606 101.411 10.4903 101.656 10.7496C101.902 11.009 102.025 11.3297 102.025 11.7119C102.025 12.0941 101.902 12.4149 101.656 12.6742C101.411 12.9336 101.09 13.0632 100.694 13.0632Z" fill="white"/>
<path d="M93.1771 24.8974C92.1943 24.8974 91.3071 24.679 90.5154 24.2422C89.7374 23.7918 89.1163 23.1776 88.6522 22.3995C88.2018 21.6215 87.9766 20.7479 87.9766 19.7788C87.9766 18.8097 88.2018 17.9429 88.6522 17.1785C89.1027 16.4005 89.7101 15.7863 90.4745 15.3358C91.2525 14.8854 92.1124 14.6602 93.0543 14.6602C93.9688 14.6602 94.7741 14.8717 95.4702 15.2949C96.18 15.718 96.7328 16.2981 97.1287 17.0352C97.5382 17.7723 97.7429 18.6117 97.7429 19.5536C97.7429 19.7174 97.7293 19.888 97.702 20.0654C97.6883 20.2292 97.661 20.4135 97.6201 20.6183H89.5531V18.7755H96.453L95.6136 19.5126C95.5863 18.912 95.4702 18.407 95.2655 17.9975C95.0608 17.588 94.7673 17.2741 94.3851 17.0557C94.0166 16.8373 93.5593 16.7281 93.0133 16.7281C92.44 16.7281 91.9418 16.8509 91.5187 17.0966C91.0955 17.3423 90.7679 17.6904 90.5359 18.1408C90.3038 18.5776 90.1878 19.1031 90.1878 19.7174C90.1878 20.3316 90.3107 20.8708 90.5564 21.3349C90.802 21.7989 91.1501 22.1607 91.6006 22.42C92.051 22.6657 92.5697 22.7886 93.1566 22.7886C93.6617 22.7886 94.1258 22.6998 94.5489 22.5224C94.9857 22.3449 95.3542 22.0856 95.6545 21.7443L97.0877 23.198C96.61 23.7577 96.0299 24.1808 95.3474 24.4675C94.6649 24.7541 93.9415 24.8974 93.1771 24.8974Z" fill="white"/>
<path d="M82.6475 24.6927V10.77H84.8997V24.6927H82.6475ZM80.293 16.9124V14.8649H87.2543V16.9124H80.293Z" fill="white"/>
<path d="M73.3898 24.8974C72.5025 24.8974 71.6972 24.6722 70.9738 24.2218C70.264 23.7713 69.6975 23.1639 69.2744 22.3995C68.8649 21.6215 68.6602 20.7547 68.6602 19.7993C68.6602 18.8301 68.8649 17.9634 69.2744 17.199C69.6975 16.421 70.264 15.8067 70.9738 15.3563C71.6972 14.8922 72.5025 14.6602 73.3898 14.6602C74.1405 14.6602 74.8025 14.824 75.3758 15.1515C75.9627 15.4655 76.4268 15.9023 76.7681 16.4619C77.1093 17.0216 77.2799 17.6563 77.2799 18.366V21.1915C77.2799 21.9013 77.1093 22.536 76.7681 23.0957C76.4405 23.6553 75.9832 24.0989 75.3963 24.4265C74.8093 24.7405 74.1405 24.8974 73.3898 24.8974ZM73.7583 22.7681C74.591 22.7681 75.2598 22.4883 75.7648 21.9286C76.2835 21.369 76.5429 20.6524 76.5429 19.7788C76.5429 19.1919 76.4268 18.6732 76.1948 18.2227C75.9627 17.7723 75.6352 17.4242 75.212 17.1785C74.8025 16.9192 74.318 16.7895 73.7583 16.7895C73.2123 16.7895 72.7278 16.9192 72.3046 17.1785C71.8951 17.4242 71.5675 17.7723 71.3218 18.2227C71.0898 18.6732 70.9738 19.1919 70.9738 19.7788C70.9738 20.3657 71.0898 20.8844 71.3218 21.3349C71.5675 21.7853 71.8951 22.1402 72.3046 22.3995C72.7278 22.6452 73.2123 22.7681 73.7583 22.7681ZM76.3995 24.6927V22.0515L76.7886 19.6559L76.3995 17.2809V14.8649H78.6517V24.6927H76.3995Z" fill="white"/>
<path d="M63.3116 24.6927V10.77H65.5638V24.6927H63.3116ZM60.957 16.9124V14.8649H67.9184V16.9124H60.957Z" fill="white"/>
<path d="M56.2346 24.8974C55.6886 24.8974 55.1631 24.8292 54.6581 24.6927C54.153 24.5425 53.6889 24.3378 53.2658 24.0785C52.8426 23.8055 52.4741 23.4779 52.1602 23.0957L53.5934 21.6625C53.9346 22.0583 54.3236 22.3586 54.7604 22.5633C55.2109 22.7544 55.7159 22.85 56.2755 22.85C56.7806 22.85 57.1628 22.7749 57.4221 22.6248C57.6815 22.4746 57.8111 22.2562 57.8111 21.9696C57.8111 21.6693 57.6883 21.4372 57.4426 21.2734C57.1969 21.1096 56.8761 20.9731 56.4803 20.8639C56.0981 20.7411 55.6886 20.6182 55.2518 20.4954C54.8287 20.3726 54.4192 20.2088 54.0233 20.004C53.6411 19.7856 53.3272 19.4921 53.0815 19.1236C52.8358 18.7551 52.713 18.2773 52.713 17.6904C52.713 17.0625 52.8563 16.5233 53.1429 16.0729C53.4432 15.6225 53.8595 15.2744 54.3919 15.0287C54.9379 14.783 55.5862 14.6602 56.337 14.6602C57.1286 14.6602 57.8248 14.8035 58.4254 15.0901C59.0396 15.3631 59.5515 15.7794 59.961 16.3391L58.5277 17.7723C58.2411 17.4174 57.9135 17.1512 57.545 16.9738C57.1764 16.7963 56.7533 16.7076 56.2755 16.7076C55.8251 16.7076 55.477 16.7759 55.2313 16.9124C54.9856 17.0489 54.8628 17.2468 54.8628 17.5061C54.8628 17.7791 54.9856 17.9907 55.2313 18.1408C55.477 18.291 55.791 18.4206 56.1732 18.5298C56.569 18.639 56.9785 18.7619 57.4016 18.8984C57.8384 19.0212 58.2479 19.1987 58.6301 19.4307C59.026 19.6491 59.3467 19.9494 59.5924 20.3316C59.8381 20.7001 59.961 21.1847 59.961 21.7853C59.961 22.7408 59.6265 23.4983 58.9577 24.058C58.2889 24.6176 57.3812 24.8974 56.2346 24.8974Z" fill="white"/>
<path d="M41.25 24.6928V10.3606H43.6046V24.6928H41.25ZM42.8675 24.6928V22.543H50.8935V24.6928H42.8675ZM42.8675 18.4071V16.3392H50.1974V18.4071H42.8675ZM42.8675 12.5104V10.3606H50.7911V12.5104H42.8675Z" fill="white"/>
</svg>
