<svg width="25" height="25" viewBox="0 0 25 25" fill="none" xmlns="http://www.w3.org/2000/svg">
<path d="M22.0107 0.578125C22.6996 0.378455 23.4331 0.56786 23.9268 1.07227V1.07324C24.4275 1.58402 24.6128 2.31952 24.4062 2.98828L24.4053 2.99219L18.4434 22.9502C18.2124 23.7029 17.5977 24.2266 16.8213 24.3252L16.8164 24.3262C16.7565 24.3344 16.6789 24.335 16.5713 24.335C15.8947 24.3348 15.2841 23.9986 14.9258 23.4023L14.9238 23.4004L11.0811 17.0879L11.0342 17.002C10.8323 16.5965 10.8906 16.1095 11.1826 15.7627L11.249 15.6904L18.4629 8.48926L18.4688 8.48242C19.0125 7.91969 19.0237 7.0245 18.4688 6.46387H18.4697L18.4619 6.45605H18.4609C17.9031 5.88589 16.9879 5.88588 16.4307 6.45703L9.22949 13.6582C8.85943 14.0291 8.28099 14.0984 7.83301 13.8242L7.83203 13.8232L1.54395 9.9834C1.23444 9.79425 0.935899 9.45358 0.735352 9.04688C0.534008 8.63854 0.458804 8.22133 0.521484 7.8916C0.660569 7.15916 1.17056 6.59108 1.89258 6.39062L1.89844 6.38965L22.0107 0.578125Z" fill="white" stroke="black"/>
<path opacity="0.4" d="M9.31449 21.4277C9.67949 21.794 9.67949 22.3877 9.31449 22.754L7.60699 24.4602C7.42448 24.644 7.18449 24.7352 6.94449 24.7352C6.70448 24.7352 6.46449 24.644 6.28199 24.4602C5.91573 24.094 5.91573 23.5015 6.28199 23.1352L7.98823 21.4277C8.35449 21.0627 8.94824 21.0627 9.31449 21.4277ZM8.33486 16.6927C8.69986 17.059 8.69986 17.6527 8.33486 18.019L6.62736 19.7252C6.44486 19.909 6.20486 20.0002 5.96486 20.0002C5.72486 20.0002 5.48486 19.909 5.30236 19.7252C4.93611 19.359 4.93611 18.7665 5.30236 18.4002L7.00861 16.6927C7.37486 16.3277 7.96861 16.3277 8.33486 16.6927ZM3.63336 15.2022C3.99836 15.5685 3.99836 16.1622 3.63336 16.5285L1.92586 18.2347C1.74336 18.4185 1.50336 18.5097 1.26336 18.5097C1.02336 18.5097 0.783359 18.4185 0.600859 18.2347C0.234609 17.8685 0.234609 17.276 0.600859 16.9097L2.30711 15.2022C2.67336 14.8372 3.26711 14.8372 3.63336 15.2022Z" fill="white"/>
</svg>
