<svg width="17" height="15" viewBox="0 0 17 15" fill="none" xmlns="http://www.w3.org/2000/svg">
<path d="M12.5 3.33333H13.3333V4.16667C13.3333 4.38768 13.4211 4.59964 13.5774 4.75592C13.7337 4.9122 13.9457 5 14.1667 5C14.3877 5 14.5996 4.9122 14.7559 4.75592C14.9122 4.59964 15 4.38768 15 4.16667V3.33333H15.8333C16.0543 3.33333 16.2663 3.24554 16.4226 3.08926C16.5789 2.93298 16.6667 2.72101 16.6667 2.5C16.6667 2.27899 16.5789 2.06702 16.4226 1.91074C16.2663 1.75446 16.0543 1.66667 15.8333 1.66667H15V0.833333C15 0.61232 14.9122 0.400358 14.7559 0.244078C14.5996 0.0877973 14.3877 0 14.1667 0C13.9457 0 13.7337 0.0877973 13.5774 0.244078C13.4211 0.400358 13.3333 0.61232 13.3333 0.833333V1.66667H12.5C12.279 1.66667 12.067 1.75446 11.9107 1.91074C11.7545 2.06702 11.6667 2.27899 11.6667 2.5C11.6667 2.72101 11.7545 2.93298 11.9107 3.08926C12.067 3.24554 12.279 3.33333 12.5 3.33333ZM15.8333 6.66667C15.6123 6.66667 15.4004 6.75446 15.2441 6.91074C15.0878 7.06702 15 7.27899 15 7.5V12.5C15 12.721 14.9122 12.933 14.7559 13.0893C14.5996 13.2455 14.3877 13.3333 14.1667 13.3333H2.5C2.27899 13.3333 2.06702 13.2455 1.91074 13.0893C1.75446 12.933 1.66667 12.721 1.66667 12.5V4.50833L6.56667 9.41667C7.03542 9.88484 7.67083 10.1478 8.33333 10.1478C8.99583 10.1478 9.63125 9.88484 10.1 9.41667L12.1583 7.35833C12.3153 7.20141 12.4034 6.98858 12.4034 6.76667C12.4034 6.54475 12.3153 6.33192 12.1583 6.175C12.0014 6.01808 11.7886 5.92992 11.5667 5.92992C11.3447 5.92992 11.1319 6.01808 10.975 6.175L8.91667 8.23333C8.76089 8.38602 8.55146 8.47155 8.33333 8.47155C8.1152 8.47155 7.90577 8.38602 7.75 8.23333L2.84167 3.33333H9.16667C9.38768 3.33333 9.59964 3.24554 9.75592 3.08926C9.9122 2.93298 10 2.72101 10 2.5C10 2.27899 9.9122 2.06702 9.75592 1.91074C9.59964 1.75446 9.38768 1.66667 9.16667 1.66667H2.5C1.83696 1.66667 1.20107 1.93006 0.732233 2.3989C0.263392 2.86774 0 3.50363 0 4.16667V12.5C0 13.163 0.263392 13.7989 0.732233 14.2678C1.20107 14.7366 1.83696 15 2.5 15H14.1667C14.8297 15 15.4656 14.7366 15.9344 14.2678C16.4033 13.7989 16.6667 13.163 16.6667 12.5V7.5C16.6667 7.27899 16.5789 7.06702 16.4226 6.91074C16.2663 6.75446 16.0543 6.66667 15.8333 6.66667Z" fill="#999999"/>
</svg>
